<?xml version="1.0" standalone="no"?>
<!DOCTYPE svg PUBLIC "-//W3C//DTD SVG 20010904//EN"
 "http://www.w3.org/TR/2001/REC-SVG-20010904/DTD/svg10.dtd">
<svg version="1.0" xmlns="http://www.w3.org/2000/svg"
 width="615.000000pt" height="615.000000pt" viewBox="0 0 615.000000 615.000000"
 preserveAspectRatio="xMidYMid meet">
<metadata>
Created by potrace 1.11, written by Peter Selinger 2001-2013
</metadata>
<g transform="translate(0.000000,615.000000) scale(0.100000,-0.100000)"
fill="#000000" stroke="none">
<path d="M0 3075 l0 -3075 3075 0 3075 0 0 3075 0 3075 -3075 0 -3075 0 0
-3075z m1600 1521 c0 -2 -37 -34 -83 -69 -46 -36 -115 -103 -154 -149 -165
-196 -229 -326 -291 -592 -7 -27 -10 -25 -124 105 l-117 133 83 91 c46 49 176
179 290 288 l207 197 95 0 c52 0 94 -2 94 -4z m1540 -22 c252 -39 450 -132
586 -276 72 -76 131 -199 158 -332 l12 -60 380 2 c208 1 429 5 489 8 l110 6
-3 206 c-1 113 1 209 5 213 8 7 374 -299 381 -319 4 -12 -514 -602 -528 -602
-5 0 -17 15 -26 33 -62 120 -255 245 -504 326 -242 79 -512 106 -1074 110
-491 3 -831 42 -965 111 -52 26 -108 75 -127 111 -20 40 -18 147 4 181 27 44
136 125 225 168 101 48 228 83 423 115 164 26 276 26 454 -1z m975 -1 c-3 -16
-13 -34 -20 -42 -13 -13 -18 -12 -41 10 -14 13 -30 32 -35 42 -9 15 -4 17 47
17 l56 0 -7 -27z m-2289 -1457 c195 -26 411 -45 844 -76 470 -34 657 -51 895
-81 171 -22 411 -63 460 -79 77 -27 99 -95 46 -147 -30 -31 -131 -68 -281
-103 -133 -31 -329 -50 -513 -50 l-169 0 -61 56 c-165 149 -389 227 -657 227
-151 0 -208 -14 -302 -77 l-67 -45 -98 107 c-94 101 -203 226 -232 265 -17 22
-11 22 135 3z m905 -990 c254 -36 542 -43 783 -20 65 7 68 6 58 -12 -14 -26
-282 -322 -371 -409 l-71 -69 -52 49 c-252 239 -481 475 -461 475 5 0 56 -7
114 -14z m-2665 -2103 c-7 -7 -26 7 -26 19 0 6 6 6 15 -2 9 -7 13 -15 11 -17z"/>
</g>
</svg>
